<svg xmlns="http://www.w3.org/2000/svg" xmlns:oryx="http://oryx-editor.org" id="_FB105F47-3997-456B-87DA-3E3920CBC83A" width="714.25" height="265.25" xmlns:xlink="http://www.w3.org/1999/xlink" xmlns:svg="http://www.w3.org/2000/svg"><defs><marker id="_963E2A1C-54A1-42DB-BCC2-3524DD905DA3start" refX="1" refY="5" markerUnits="userSpaceOnUse" markerWidth="17" markerHeight="11" orient="auto" fill="#000000" stroke="#000000"> 	  		<path id="_963E2A1C-54A1-42DB-BCC2-3524DD905DA3conditional" d="M 0 5 L 8 0 L 16 5 L 8 10 L 0 5" fill="white" stroke="#000000" stroke-width="1" display="none"/> 			<path id="_963E2A1C-54A1-42DB-BCC2-3524DD905DA3default" d="M 5 0 L 11 10" fill="white" stroke="#000000" stroke-width="1" display="none"/> 	  	</marker><marker id="_963E2A1C-54A1-42DB-BCC2-3524DD905DA3end" refX="15" refY="6" markerUnits="userSpaceOnUse" markerWidth="15" markerHeight="12" orient="auto" fill="#000000" stroke="#000000"> 	  		<path id="_963E2A1C-54A1-42DB-BCC2-3524DD905DA3frame2" d="M 0 1 L 15 6 L 0 11z" fill="#000000" stroke="#000000" stroke-linejoin="round" stroke-width="2"/> 	  	</marker><marker id="_5F914121-4709-452E-AFE4-2407154B4B35start" refX="1" refY="5" markerUnits="userSpaceOnUse" markerWidth="17" markerHeight="11" orient="auto" fill="#000000" stroke="#000000"> 	  		<path id="_5F914121-4709-452E-AFE4-2407154B4B35conditional" d="M 0 5 L 8 0 L 16 5 L 8 10 L 0 5" fill="white" stroke="#000000" stroke-width="1" display="none"/> 			<path id="_5F914121-4709-452E-AFE4-2407154B4B35default" d="M 5 0 L 11 10" fill="white" stroke="#000000" stroke-width="1" display="none"/> 	  	</marker><marker id="_5F914121-4709-452E-AFE4-2407154B4B35end" refX="15" refY="6" markerUnits="userSpaceOnUse" markerWidth="15" markerHeight="12" orient="auto" fill="#000000" stroke="#000000"> 	  		<path id="_5F914121-4709-452E-AFE4-2407154B4B35frame2" d="M 0 1 L 15 6 L 0 11z" fill="#000000" stroke="#000000" stroke-linejoin="round" stroke-width="2"/> 	  	</marker><marker id="_22CEAECE-E802-40BB-8713-10531B0451DEstart" refX="1" refY="5" markerUnits="userSpaceOnUse" markerWidth="17" markerHeight="11" orient="auto" fill="#000000" stroke="#000000"> 	  		<path id="_22CEAECE-E802-40BB-8713-10531B0451DEconditional" d="M 0 5 L 8 0 L 16 5 L 8 10 L 0 5" fill="white" stroke="#000000" stroke-width="1" display="none"/> 			<path id="_22CEAECE-E802-40BB-8713-10531B0451DEdefault" d="M 5 0 L 11 10" fill="white" stroke="#000000" stroke-width="1" display="none"/> 	  	</marker><marker id="_22CEAECE-E802-40BB-8713-10531B0451DEend" refX="15" refY="6" markerUnits="userSpaceOnUse" markerWidth="15" markerHeight="12" orient="auto" fill="#000000" stroke="#000000"> 	  		<path id="_22CEAECE-E802-40BB-8713-10531B0451DEframe2" d="M 0 1 L 15 6 L 0 11z" fill="#000000" stroke="#000000" stroke-linejoin="round" stroke-width="2"/> 	  	</marker><marker id="_06F6F072-D34D-4816-AEA9-A8BDAF2D742Estart" refX="1" refY="5" markerUnits="userSpaceOnUse" markerWidth="17" markerHeight="11" orient="auto" fill="#000000" stroke="#000000"> 	  		<path id="_06F6F072-D34D-4816-AEA9-A8BDAF2D742Econditional" d="M 0 5 L 8 0 L 16 5 L 8 10 L 0 5" fill="white" stroke="#000000" stroke-width="1" display="none"/> 			<path id="_06F6F072-D34D-4816-AEA9-A8BDAF2D742Edefault" d="M 5 0 L 11 10" fill="white" stroke="#000000" stroke-width="1" display="none"/> 	  	</marker><marker id="_06F6F072-D34D-4816-AEA9-A8BDAF2D742Eend" refX="15" refY="6" markerUnits="userSpaceOnUse" markerWidth="15" markerHeight="12" orient="auto" fill="#000000" stroke="#000000"> 	  		<path id="_06F6F072-D34D-4816-AEA9-A8BDAF2D742Eframe2" d="M 0 1 L 15 6 L 0 11z" fill="#000000" stroke="#000000" stroke-linejoin="round" stroke-width="2"/> 	  	</marker></defs><g stroke="none" font-family="Verdana, sans-serif" font-size-adjust="none" font-style="normal" font-variant="normal" font-weight="normal" line-heigth="normal" font-size="12"><g class="stencils" transform="translate(16.25, 16.25)"><g class="me"/><g class="children"><g id="_04F8178B-3765-449B-BF0F-A0AE3860CE0A" bpmn2nodeid="processStartEvent"><g class="stencils" transform="translate(120, 165)"><g class="me"><g pointer-events="fill" id="_04F8178B-3765-449B-BF0F-A0AE3860CE0A">        <defs id="_04F8178B-3765-449B-BF0F-A0AE3860CE0A__04F8178B-3765-449B-BF0F-A0AE3860CE0A_5"> 		<radialGradient id="_04F8178B-3765-449B-BF0F-A0AE3860CE0Abackground" cx="10%" cy="10%" r="100%" fx="10%" fy="10%"> 			<stop offset="0%" stop-color="#ffffff" stop-opacity="1" id="_04F8178B-3765-449B-BF0F-A0AE3860CE0A__04F8178B-3765-449B-BF0F-A0AE3860CE0A_6"/> 			<stop id="_04F8178B-3765-449B-BF0F-A0AE3860CE0Afill_el" offset="100%" stop-color="#9acd32" stop-opacity="1"/> 		</radialGradient> 	</defs> 	     <circle id="_04F8178B-3765-449B-BF0F-A0AE3860CE0Abg_frame" cx="15" cy="15" r="15" stroke="#000000" fill="url(#_04F8178B-3765-449B-BF0F-A0AE3860CE0Abackground) white" stroke-width="1" style="stroke-dasharray: 5.5, 3"/>      <circle id="_04F8178B-3765-449B-BF0F-A0AE3860CE0Aframe" cx="15" cy="15" r="15" stroke="#000000" fill="none" stroke-width="1" display="inherit"/>  	<text font-size="11" id="_04F8178B-3765-449B-BF0F-A0AE3860CE0Atext_name" x="15" y="32" oryx:align="top center" stroke="black" stroke-width="0pt" letter-spacing="-0.01px" fill="#000000" text-anchor="middle" transform="rotate(0 15 32)" visibility="inherit" oryx:fontSize="11"/>   </g></g><g class="children" style="overflow:hidden"/><g class="edge"/></g><g class="controls"><g class="dockers"/><g class="magnets" transform="translate(120, 165)"><g pointer-events="all" display="none" transform="translate(7, 7)"><circle cx="8" cy="8" r="4" stroke="none" fill="red" fill-opacity="0.3"/></g></g></g></g><g id="_074C8827-57CE-4DCF-AD2B-5E87ADE44CA1" bpmn2nodeid="_9D7D1F2B-6598-4514-B676-7E60971BAEDB"><g class="stencils" transform="translate(195, 135)"><g class="me"><g pointer-events="fill" oryx:minimumSize="50 40" id="_074C8827-57CE-4DCF-AD2B-5E87ADE44CA1">   	<defs id="_074C8827-57CE-4DCF-AD2B-5E87ADE44CA1__074C8827-57CE-4DCF-AD2B-5E87ADE44CA1_17"> 		<radialGradient id="_074C8827-57CE-4DCF-AD2B-5E87ADE44CA1background" cx="10%" cy="10%" r="100%" fx="10%" fy="10%"> 			<stop offset="0%" stop-color="#ffffff" stop-opacity="1" id="_074C8827-57CE-4DCF-AD2B-5E87ADE44CA1__074C8827-57CE-4DCF-AD2B-5E87ADE44CA1_18"/> 			<stop id="_074C8827-57CE-4DCF-AD2B-5E87ADE44CA1fill_el" offset="100%" stop-color="#fafad2" stop-opacity="1"/> 		</radialGradient> 		<radialGradient id="_074C8827-57CE-4DCF-AD2B-5E87ADE44CA1borderbackground" cx="10%" cy="10%" r="100%" fx="10%" fy="10%"> 			<stop offset="0%" stop-color="#ffffff" stop-opacity="1" id="_074C8827-57CE-4DCF-AD2B-5E87ADE44CA1__074C8827-57CE-4DCF-AD2B-5E87ADE44CA1_19"/> 			<stop id="_074C8827-57CE-4DCF-AD2B-5E87ADE44CA1fill_border" offset="100%" stop-color="#000000" stop-opacity="1" stroke="#000000"/> 		</radialGradient> 	</defs> 	 	<rect id="_074C8827-57CE-4DCF-AD2B-5E87ADE44CA1text_frame" oryx:anchors="bottom top right left" x="1" y="1" width="94" height="79" rx="10" ry="10" stroke="none" stroke-width="0" fill="none"/> 	<rect id="_074C8827-57CE-4DCF-AD2B-5E87ADE44CA1bg_frame" oryx:resize="vertical horizontal" x="0" y="0" width="100" height="80" rx="10" ry="10" stroke="#000000" stroke-width="1" fill="url(#_074C8827-57CE-4DCF-AD2B-5E87ADE44CA1background) #ffffcc"/> 		<text font-size="12" id="_074C8827-57CE-4DCF-AD2B-5E87ADE44CA1text_name" x="50" y="40" oryx:align="middle center" oryx:fittoelem="text_frame" stroke="black" text-anchor="middle" stroke-width="0pt" letter-spacing="-0.01px" fill="#000000" transform="rotate(0 50 40)" visibility="inherit" oryx:fontSize="12"><tspan x="50" y="40" dy="-1">Captura </tspan><tspan x="50" y="40" dy="11">numeros</tspan></text>     <g id="_074C8827-57CE-4DCF-AD2B-5E87ADE44CA1manualTask" transform="scale(0.7,0.7) translate(8,8)" display="none">     	<path oryx:anchors="top left" id="_074C8827-57CE-4DCF-AD2B-5E87ADE44CA1frame" style="opacity:1;fill:none;fill-opacity:1;stroke-width:1" d="M0.5,3.751l4.083-3.25c0,0,11.166,0.083,12.083,0.083s-2.417,2.917-1.5,2.917     s11.667,0,12.584,0c1.166,1.708-0.168,3.167-0.834,3.667s0.875,1.917-1,4.417c-0.75,0.25,0.75,1.875-1.333,3.333     c-1.167,0.583,0.583,1.542-1.25,2.833c-1.167,0-20.833,0.083-20.833,0.083l-2-1.333V3.751z" stroke="#000000"/> 		<path id="_074C8827-57CE-4DCF-AD2B-5E87ADE44CA1frame2" oryx:anchors="top left" style="opacity:1;fill:none;stroke-width:2" d="M 13.5 7 L 27 7" stroke="#000000"/> 		<path id="_074C8827-57CE-4DCF-AD2B-5E87ADE44CA1frame3" oryx:anchors="top left" style="opacity:1;fill:none;stroke-width:2" d="M 13.5 11 L 26 11" stroke="#000000"/> 		<path id="_074C8827-57CE-4DCF-AD2B-5E87ADE44CA1frame4" oryx:anchors="top left" style="opacity:1;fill:none;stroke-width:1.5" d="M 14 14.5 L 25 14.5" stroke="#000000"/> 		<path id="_074C8827-57CE-4DCF-AD2B-5E87ADE44CA1frame5" oryx:anchors="top left" style="opacity:1;fill:none;stroke-width:1.5" d="M 8.2 3.1 L 15 3.1" stroke="#000000"/> 	</g> 	 	<g id="_074C8827-57CE-4DCF-AD2B-5E87ADE44CA1businessRuleTask" transform="scale(0.7,0.7) translate(8,8)" display="none"> 		<rect id="_074C8827-57CE-4DCF-AD2B-5E87ADE44CA1frame6" oryx:anchors="top left" x="0" y="0" width="22" height="4" style="opacity:1;fill:#B3B1B3;fill-opacity:1;" stroke="#000000"/> 		<rect id="_074C8827-57CE-4DCF-AD2B-5E87ADE44CA1frame7" oryx:anchors="top left" x="0" y="4" style="opacity:1;fill:none;" width="22" height="12" stroke="#000000"/> 		<path id="_074C8827-57CE-4DCF-AD2B-5E87ADE44CA1frame8" oryx:anchors="top left" style="opacity:1;fill:none;" d="M 0 10 L 22 10" stroke="#000000"/> 		<path id="_074C8827-57CE-4DCF-AD2B-5E87ADE44CA1frame9" oryx:anchors="top left" style="opacity:1; fill:none;" d="M 7 4 L 7 16" stroke="#000000"/> 	</g> 	 	<g id="_074C8827-57CE-4DCF-AD2B-5E87ADE44CA1scriptTask" transform="scale(0.7,0.7) translate(8,8)" display="none"> 		<path oryx:anchors="top left" id="_074C8827-57CE-4DCF-AD2B-5E87ADE44CA1frame10" style="opacity:1;fill:none;" stroke="#000000" d="M6.402,0.5h14.5c0,0-5.833,2.833-5.833,5.583s4.417,6,4.417,9.167    s-4.167,5.083-4.167,5.083H0.235c0,0,5-2.667,5-5s-4.583-6.75-4.583-9.25S6.402,0.5,6.402,0.5z"/> 		<path oryx:anchors="top left" id="_074C8827-57CE-4DCF-AD2B-5E87ADE44CA1frame11" style="opacity:1;fill:none;stroke-width:1.5" d="M 3.5 4.5 L 13.5 4.5" stroke="#000000"/> 		<path oryx:anchors="top left" id="_074C8827-57CE-4DCF-AD2B-5E87ADE44CA1frame12" style="opacity:1;fill:none;stroke-width:1.5" d="M 3.8 8.5 L 13.8 8.5" stroke="#000000"/> 		<path oryx:anchors="top left" id="_074C8827-57CE-4DCF-AD2B-5E87ADE44CA1frame13" style="opacity:1;fill:none;stroke-width:1.5" d="M 6.3 12.5 L 16.3 12.5" stroke="#000000"/> 		<path oryx:anchors="top left" id="_074C8827-57CE-4DCF-AD2B-5E87ADE44CA1frame14" style="opacity:1;fill:none;stroke-width:1.5" d="M 6.5 16.5 L 16.5 16.5" stroke="#000000"/> 	</g> 	 	<g id="_074C8827-57CE-4DCF-AD2B-5E87ADE44CA1userTask" transform="scale(0.7,0.7) translate(8,8)" display="inherit"> 		<path id="_074C8827-57CE-4DCF-AD2B-5E87ADE44CA1frame15" oryx:anchors="top left" style="opacity:1;fill:#F4F6F7" stroke="#000000" d="M0.585,24.167h24.083v-7.833c0,0-2.333-3.917-7.083-5.167h-9.25    c-4.417,1.333-7.833,5.75-7.833,5.75L0.585,24.167z"/> 		<path id="_074C8827-57CE-4DCF-AD2B-5E87ADE44CA1frame16" oryx:anchors="top left" style="opacity:1;fill:none" d="M 6 20 L 6 24" stroke="#000000"/> 		<path id="_074C8827-57CE-4DCF-AD2B-5E87ADE44CA1frame17" oryx:anchors="top left" style="opacity:1;fill:none" d="M 20 20 L 20 24" stroke="#000000"/> 		<circle id="_074C8827-57CE-4DCF-AD2B-5E87ADE44CA1frame18" oryx:anchors="top left" fill="black" cx="13.002" cy="5.916" r="5.417" stroke="#000000"/> 		<path id="_074C8827-57CE-4DCF-AD2B-5E87ADE44CA1frame19" oryx:anchors="top left" style="opacity:1;fill:#F0EFF0;" stroke="#000000" d="M8.043,7.083c0,0,2.814-2.426,5.376-1.807s4.624-0.693,4.624-0.693    c0.25,1.688,0.042,3.75-1.458,5.584c0,0,1.083,0.75,1.083,1.5s0.125,1.875-1,3s-5.5,1.25-6.75,0S8.668,12.834,8.668,12    s0.583-1.25,1.25-1.917C8.835,9.5,7.419,7.708,8.043,7.083z"/> 	</g> 	 	<g id="_074C8827-57CE-4DCF-AD2B-5E87ADE44CA1serviceTask" transform="scale(0.7,0.7) translate(8,8)" display="none"> 		<polygon oryx:anchors="top left" id="_074C8827-57CE-4DCF-AD2B-5E87ADE44CA1frame20" style="opacity:1;fill:#ffffff" stroke="#000000" points="15.392,5.064 17.954,2.502 20.347,4.895 17.786,7.455     18.729,9.732 22.353,9.732 22.353,13.115 18.731,13.115 17.788,15.392 20.351,17.955 17.958,20.347 15.397,17.786 13.12,18.729     13.12,22.353 9.737,22.353 9.737,18.731 7.46,17.788 4.897,20.35 2.506,17.958 5.066,15.397 4.124,13.12 0.5,13.12 0.5,9.737     4.121,9.737 5.065,7.461 2.503,4.898 4.895,2.506 7.455,5.066 9.732,4.125 9.732,0.5 13.116,0.5 13.116,4.121 "/> 		<circle oryx:anchors="top left" id="_074C8827-57CE-4DCF-AD2B-5E87ADE44CA1frame21" style="opacity:1;fill:none" stroke="#000000" cx="11.427" cy="11.426" r="3.714"/> 		<polygon oryx:anchors="top left" id="_074C8827-57CE-4DCF-AD2B-5E87ADE44CA1frame22" style="opacity:1;fill:#ffffff" stroke="#000000" points="21.392,11.064 23.954,8.502 26.347,10.895 23.786,13.455     24.729,15.732 28.353,15.732 28.353,19.115 24.731,19.115 23.788,21.392 26.351,23.955 23.958,26.347 21.397,23.786 19.12,24.729     19.12,28.353 15.737,28.353 15.737,24.731 13.46,23.788 10.897,26.35 8.506,23.958 11.066,21.397 10.124,19.12 6.5,19.12     6.5,15.737 10.121,15.737 11.065,13.461 8.503,10.898 10.895,8.506 13.455,11.066 15.732,10.125 15.732,6.5 19.116,6.5     19.116,10.121 "/> 		<circle oryx:anchors="top left" id="_074C8827-57CE-4DCF-AD2B-5E87ADE44CA1frame23" style="opacity:1;fill:none;" stroke="#000000" cx="17.427" cy="17.426" r="3.714"/> 	</g> 	 	<g id="_074C8827-57CE-4DCF-AD2B-5E87ADE44CA1sendTask" display="none"> 		<path id="_074C8827-57CE-4DCF-AD2B-5E87ADE44CA1stframe24" oryx:anchors="left top" stroke="#FFFFFF" fill="black" stroke-width="1" d="M8,11 L8,21 L24,21 L24,11 L16,17z"/> 		<path id="_074C8827-57CE-4DCF-AD2B-5E87ADE44CA1stframe25" oryx:anchors="left top" stroke="#FFFFFF" fill="black" stroke-width="1" d="M7,10 L16,17 L25 10z"/> 	</g> 	 	<g id="_074C8827-57CE-4DCF-AD2B-5E87ADE44CA1receiveTask" display="none"> 		<path id="_074C8827-57CE-4DCF-AD2B-5E87ADE44CA1frame26" oryx:anchors="left top" stroke="#000000" fill="none" stroke-width="1" d="M8,11 L8,21 L24,21 L24,11z M8,11 L16,17 L24,11"/> 	</g> 	 	<g id="_074C8827-57CE-4DCF-AD2B-5E87ADE44CA1none" display="inherit"/>  	<g id="_074C8827-57CE-4DCF-AD2B-5E87ADE44CA1sequential" display="none">         <path oryx:anchors="bottom" fill="none" stroke="#000000" stroke-width="2" d="M46,76h10M46,72h10 M46,68h10" id="_074C8827-57CE-4DCF-AD2B-5E87ADE44CA1__074C8827-57CE-4DCF-AD2B-5E87ADE44CA1_20"/>     </g>   </g></g><g class="children" style="overflow:hidden"/><g class="edge"/></g><g class="controls"><g class="dockers"/><g class="magnets" transform="translate(195, 135)"><g pointer-events="all" display="none" transform="translate(-7, 12)"><circle cx="8" cy="8" r="4" stroke="none" fill="red" fill-opacity="0.3"/></g><g pointer-events="all" display="none" transform="translate(-7, 32)"><circle cx="8" cy="8" r="4" stroke="none" fill="red" fill-opacity="0.3"/></g><g pointer-events="all" display="none" transform="translate(-7, 52)"><circle cx="8" cy="8" r="4" stroke="none" fill="red" fill-opacity="0.3"/></g><g pointer-events="all" display="none" transform="translate(17, 71)"><circle cx="8" cy="8" r="4" stroke="none" fill="red" fill-opacity="0.3"/></g><g pointer-events="all" display="none" transform="translate(42, 71)"><circle cx="8" cy="8" r="4" stroke="none" fill="red" fill-opacity="0.3"/></g><g pointer-events="all" display="none" transform="translate(67, 71)"><circle cx="8" cy="8" r="4" stroke="none" fill="red" fill-opacity="0.3"/></g><g pointer-events="all" display="none" transform="translate(91, 12)"><circle cx="8" cy="8" r="4" stroke="none" fill="red" fill-opacity="0.3"/></g><g pointer-events="all" display="none" transform="translate(91, 32)"><circle cx="8" cy="8" r="4" stroke="none" fill="red" fill-opacity="0.3"/></g><g pointer-events="all" display="none" transform="translate(91, 52)"><circle cx="8" cy="8" r="4" stroke="none" fill="red" fill-opacity="0.3"/></g><g pointer-events="all" display="none" transform="translate(17, -7)"><circle cx="8" cy="8" r="4" stroke="none" fill="red" fill-opacity="0.3"/></g><g pointer-events="all" display="none" transform="translate(42, -7)"><circle cx="8" cy="8" r="4" stroke="none" fill="red" fill-opacity="0.3"/></g><g pointer-events="all" display="none" transform="translate(67, -7)"><circle cx="8" cy="8" r="4" stroke="none" fill="red" fill-opacity="0.3"/></g><g pointer-events="all" display="none" transform="translate(42, 32)"><circle cx="8" cy="8" r="4" stroke="none" fill="red" fill-opacity="0.3"/></g></g></g></g><g id="_1E863614-F7CD-41A4-A014-6EAC70E11814" bpmn2nodeid="_B92CF704-A642-454A-850F-7B6366A11B0C"><g class="stencils" transform="translate(330, 135)"><g class="me"><g pointer-events="fill" oryx:minimumSize="50 40" id="_1E863614-F7CD-41A4-A014-6EAC70E11814">   	<defs id="_1E863614-F7CD-41A4-A014-6EAC70E11814__1E863614-F7CD-41A4-A014-6EAC70E11814_17"> 		<radialGradient id="_1E863614-F7CD-41A4-A014-6EAC70E11814background" cx="10%" cy="10%" r="100%" fx="10%" fy="10%"> 			<stop offset="0%" stop-color="#ffffff" stop-opacity="1" id="_1E863614-F7CD-41A4-A014-6EAC70E11814__1E863614-F7CD-41A4-A014-6EAC70E11814_18"/> 			<stop id="_1E863614-F7CD-41A4-A014-6EAC70E11814fill_el" offset="100%" stop-color="#fafad2" stop-opacity="1"/> 		</radialGradient> 		<radialGradient id="_1E863614-F7CD-41A4-A014-6EAC70E11814borderbackground" cx="10%" cy="10%" r="100%" fx="10%" fy="10%"> 			<stop offset="0%" stop-color="#ffffff" stop-opacity="1" id="_1E863614-F7CD-41A4-A014-6EAC70E11814__1E863614-F7CD-41A4-A014-6EAC70E11814_19"/> 			<stop id="_1E863614-F7CD-41A4-A014-6EAC70E11814fill_border" offset="100%" stop-color="#000000" stop-opacity="1" stroke="#000000"/> 		</radialGradient> 	</defs> 	 	<rect id="_1E863614-F7CD-41A4-A014-6EAC70E11814text_frame" oryx:anchors="bottom top right left" x="1" y="1" width="94" height="79" rx="10" ry="10" stroke="none" stroke-width="0" fill="none"/> 	<rect id="_1E863614-F7CD-41A4-A014-6EAC70E11814bg_frame" oryx:resize="vertical horizontal" x="0" y="0" width="100" height="80" rx="10" ry="10" stroke="#000000" stroke-width="1" fill="url(#_1E863614-F7CD-41A4-A014-6EAC70E11814background) #ffffcc"/> 		<text font-size="12" id="_1E863614-F7CD-41A4-A014-6EAC70E11814text_name" x="50" y="40" oryx:align="middle center" oryx:fittoelem="text_frame" stroke="black" text-anchor="middle" stroke-width="0pt" letter-spacing="-0.01px" fill="#000000" transform="rotate(0 50 40)" visibility="inherit" oryx:fontSize="12"><tspan x="50" y="40" dy="-1" id="ext-gen638">Realizar </tspan><tspan x="50" y="40" dy="11" id="ext-gen624">Operacion</tspan></text>     <g id="_1E863614-F7CD-41A4-A014-6EAC70E11814manualTask" transform="scale(0.7,0.7) translate(8,8)" display="none">     	<path oryx:anchors="top left" id="_1E863614-F7CD-41A4-A014-6EAC70E11814frame" style="opacity:1;fill:none;fill-opacity:1;stroke-width:1" d="M0.5,3.751l4.083-3.25c0,0,11.166,0.083,12.083,0.083s-2.417,2.917-1.5,2.917     s11.667,0,12.584,0c1.166,1.708-0.168,3.167-0.834,3.667s0.875,1.917-1,4.417c-0.75,0.25,0.75,1.875-1.333,3.333     c-1.167,0.583,0.583,1.542-1.25,2.833c-1.167,0-20.833,0.083-20.833,0.083l-2-1.333V3.751z" stroke="#000000"/> 		<path id="_1E863614-F7CD-41A4-A014-6EAC70E11814frame2" oryx:anchors="top left" style="opacity:1;fill:none;stroke-width:2" d="M 13.5 7 L 27 7" stroke="#000000"/> 		<path id="_1E863614-F7CD-41A4-A014-6EAC70E11814frame3" oryx:anchors="top left" style="opacity:1;fill:none;stroke-width:2" d="M 13.5 11 L 26 11" stroke="#000000"/> 		<path id="_1E863614-F7CD-41A4-A014-6EAC70E11814frame4" oryx:anchors="top left" style="opacity:1;fill:none;stroke-width:1.5" d="M 14 14.5 L 25 14.5" stroke="#000000"/> 		<path id="_1E863614-F7CD-41A4-A014-6EAC70E11814frame5" oryx:anchors="top left" style="opacity:1;fill:none;stroke-width:1.5" d="M 8.2 3.1 L 15 3.1" stroke="#000000"/> 	</g> 	 	<g id="_1E863614-F7CD-41A4-A014-6EAC70E11814businessRuleTask" transform="scale(0.7,0.7) translate(8,8)" display="none"> 		<rect id="_1E863614-F7CD-41A4-A014-6EAC70E11814frame6" oryx:anchors="top left" x="0" y="0" width="22" height="4" style="opacity:1;fill:#B3B1B3;fill-opacity:1;" stroke="#000000"/> 		<rect id="_1E863614-F7CD-41A4-A014-6EAC70E11814frame7" oryx:anchors="top left" x="0" y="4" style="opacity:1;fill:none;" width="22" height="12" stroke="#000000"/> 		<path id="_1E863614-F7CD-41A4-A014-6EAC70E11814frame8" oryx:anchors="top left" style="opacity:1;fill:none;" d="M 0 10 L 22 10" stroke="#000000"/> 		<path id="_1E863614-F7CD-41A4-A014-6EAC70E11814frame9" oryx:anchors="top left" style="opacity:1; fill:none;" d="M 7 4 L 7 16" stroke="#000000"/> 	</g> 	 	<g id="_1E863614-F7CD-41A4-A014-6EAC70E11814scriptTask" transform="scale(0.7,0.7) translate(8,8)" display="inherit"> 		<path oryx:anchors="top left" id="_1E863614-F7CD-41A4-A014-6EAC70E11814frame10" style="opacity:1;fill:none;" stroke="#000000" d="M6.402,0.5h14.5c0,0-5.833,2.833-5.833,5.583s4.417,6,4.417,9.167    s-4.167,5.083-4.167,5.083H0.235c0,0,5-2.667,5-5s-4.583-6.75-4.583-9.25S6.402,0.5,6.402,0.5z"/> 		<path oryx:anchors="top left" id="_1E863614-F7CD-41A4-A014-6EAC70E11814frame11" style="opacity:1;fill:none;stroke-width:1.5" d="M 3.5 4.5 L 13.5 4.5" stroke="#000000"/> 		<path oryx:anchors="top left" id="_1E863614-F7CD-41A4-A014-6EAC70E11814frame12" style="opacity:1;fill:none;stroke-width:1.5" d="M 3.8 8.5 L 13.8 8.5" stroke="#000000"/> 		<path oryx:anchors="top left" id="_1E863614-F7CD-41A4-A014-6EAC70E11814frame13" style="opacity:1;fill:none;stroke-width:1.5" d="M 6.3 12.5 L 16.3 12.5" stroke="#000000"/> 		<path oryx:anchors="top left" id="_1E863614-F7CD-41A4-A014-6EAC70E11814frame14" style="opacity:1;fill:none;stroke-width:1.5" d="M 6.5 16.5 L 16.5 16.5" stroke="#000000"/> 	</g> 	 	<g id="_1E863614-F7CD-41A4-A014-6EAC70E11814userTask" transform="scale(0.7,0.7) translate(8,8)" display="none"> 		<path id="_1E863614-F7CD-41A4-A014-6EAC70E11814frame15" oryx:anchors="top left" style="opacity:1;fill:#F4F6F7" stroke="#000000" d="M0.585,24.167h24.083v-7.833c0,0-2.333-3.917-7.083-5.167h-9.25    c-4.417,1.333-7.833,5.75-7.833,5.75L0.585,24.167z"/> 		<path id="_1E863614-F7CD-41A4-A014-6EAC70E11814frame16" oryx:anchors="top left" style="opacity:1;fill:none" d="M 6 20 L 6 24" stroke="#000000"/> 		<path id="_1E863614-F7CD-41A4-A014-6EAC70E11814frame17" oryx:anchors="top left" style="opacity:1;fill:none" d="M 20 20 L 20 24" stroke="#000000"/> 		<circle id="_1E863614-F7CD-41A4-A014-6EAC70E11814frame18" oryx:anchors="top left" fill="black" cx="13.002" cy="5.916" r="5.417" stroke="#000000"/> 		<path id="_1E863614-F7CD-41A4-A014-6EAC70E11814frame19" oryx:anchors="top left" style="opacity:1;fill:#F0EFF0;" stroke="#000000" d="M8.043,7.083c0,0,2.814-2.426,5.376-1.807s4.624-0.693,4.624-0.693    c0.25,1.688,0.042,3.75-1.458,5.584c0,0,1.083,0.75,1.083,1.5s0.125,1.875-1,3s-5.5,1.25-6.75,0S8.668,12.834,8.668,12    s0.583-1.25,1.25-1.917C8.835,9.5,7.419,7.708,8.043,7.083z"/> 	</g> 	 	<g id="_1E863614-F7CD-41A4-A014-6EAC70E11814serviceTask" transform="scale(0.7,0.7) translate(8,8)" display="none"> 		<polygon oryx:anchors="top left" id="_1E863614-F7CD-41A4-A014-6EAC70E11814frame20" style="opacity:1;fill:#ffffff" stroke="#000000" points="15.392,5.064 17.954,2.502 20.347,4.895 17.786,7.455     18.729,9.732 22.353,9.732 22.353,13.115 18.731,13.115 17.788,15.392 20.351,17.955 17.958,20.347 15.397,17.786 13.12,18.729     13.12,22.353 9.737,22.353 9.737,18.731 7.46,17.788 4.897,20.35 2.506,17.958 5.066,15.397 4.124,13.12 0.5,13.12 0.5,9.737     4.121,9.737 5.065,7.461 2.503,4.898 4.895,2.506 7.455,5.066 9.732,4.125 9.732,0.5 13.116,0.5 13.116,4.121 "/> 		<circle oryx:anchors="top left" id="_1E863614-F7CD-41A4-A014-6EAC70E11814frame21" style="opacity:1;fill:none" stroke="#000000" cx="11.427" cy="11.426" r="3.714"/> 		<polygon oryx:anchors="top left" id="_1E863614-F7CD-41A4-A014-6EAC70E11814frame22" style="opacity:1;fill:#ffffff" stroke="#000000" points="21.392,11.064 23.954,8.502 26.347,10.895 23.786,13.455     24.729,15.732 28.353,15.732 28.353,19.115 24.731,19.115 23.788,21.392 26.351,23.955 23.958,26.347 21.397,23.786 19.12,24.729     19.12,28.353 15.737,28.353 15.737,24.731 13.46,23.788 10.897,26.35 8.506,23.958 11.066,21.397 10.124,19.12 6.5,19.12     6.5,15.737 10.121,15.737 11.065,13.461 8.503,10.898 10.895,8.506 13.455,11.066 15.732,10.125 15.732,6.5 19.116,6.5     19.116,10.121 "/> 		<circle oryx:anchors="top left" id="_1E863614-F7CD-41A4-A014-6EAC70E11814frame23" style="opacity:1;fill:none;" stroke="#000000" cx="17.427" cy="17.426" r="3.714"/> 	</g> 	 	<g id="_1E863614-F7CD-41A4-A014-6EAC70E11814sendTask" display="none"> 		<path id="_1E863614-F7CD-41A4-A014-6EAC70E11814stframe24" oryx:anchors="left top" stroke="#FFFFFF" fill="black" stroke-width="1" d="M8,11 L8,21 L24,21 L24,11 L16,17z"/> 		<path id="_1E863614-F7CD-41A4-A014-6EAC70E11814stframe25" oryx:anchors="left top" stroke="#FFFFFF" fill="black" stroke-width="1" d="M7,10 L16,17 L25 10z"/> 	</g> 	 	<g id="_1E863614-F7CD-41A4-A014-6EAC70E11814receiveTask" display="none"> 		<path id="_1E863614-F7CD-41A4-A014-6EAC70E11814frame26" oryx:anchors="left top" stroke="#000000" fill="none" stroke-width="1" d="M8,11 L8,21 L24,21 L24,11z M8,11 L16,17 L24,11"/> 	</g> 	 	<g id="_1E863614-F7CD-41A4-A014-6EAC70E11814none" display="inherit"/>  	<g id="_1E863614-F7CD-41A4-A014-6EAC70E11814sequential" display="none">         <path oryx:anchors="bottom" fill="none" stroke="#000000" stroke-width="2" d="M46,76h10M46,72h10 M46,68h10" id="_1E863614-F7CD-41A4-A014-6EAC70E11814__1E863614-F7CD-41A4-A014-6EAC70E11814_20"/>     </g>   </g></g><g class="children" style="overflow:hidden"/><g class="edge"/></g><g class="controls"><g class="dockers"/><g class="magnets" transform="translate(330, 135)"><g pointer-events="all" display="none" transform="translate(-7, 12)"><circle cx="8" cy="8" r="4" stroke="none" fill="red" fill-opacity="0.3"/></g><g pointer-events="all" display="none" transform="translate(-7, 32)"><circle cx="8" cy="8" r="4" stroke="none" fill="red" fill-opacity="0.3"/></g><g pointer-events="all" display="none" transform="translate(-7, 52)"><circle cx="8" cy="8" r="4" stroke="none" fill="red" fill-opacity="0.3"/></g><g pointer-events="all" display="none" transform="translate(17, 71)"><circle cx="8" cy="8" r="4" stroke="none" fill="red" fill-opacity="0.3"/></g><g pointer-events="all" display="none" transform="translate(42, 71)"><circle cx="8" cy="8" r="4" stroke="none" fill="red" fill-opacity="0.3"/></g><g pointer-events="all" display="none" transform="translate(67, 71)"><circle cx="8" cy="8" r="4" stroke="none" fill="red" fill-opacity="0.3"/></g><g pointer-events="all" display="none" transform="translate(91, 12)"><circle cx="8" cy="8" r="4" stroke="none" fill="red" fill-opacity="0.3"/></g><g pointer-events="all" display="none" transform="translate(91, 32)"><circle cx="8" cy="8" r="4" stroke="none" fill="red" fill-opacity="0.3"/></g><g pointer-events="all" display="none" transform="translate(91, 52)"><circle cx="8" cy="8" r="4" stroke="none" fill="red" fill-opacity="0.3"/></g><g pointer-events="all" display="none" transform="translate(17, -7)"><circle cx="8" cy="8" r="4" stroke="none" fill="red" fill-opacity="0.3"/></g><g pointer-events="all" display="none" transform="translate(42, -7)"><circle cx="8" cy="8" r="4" stroke="none" fill="red" fill-opacity="0.3"/></g><g pointer-events="all" display="none" transform="translate(67, -7)"><circle cx="8" cy="8" r="4" stroke="none" fill="red" fill-opacity="0.3"/></g><g pointer-events="all" display="none" transform="translate(42, 32)"><circle cx="8" cy="8" r="4" stroke="none" fill="red" fill-opacity="0.3"/></g></g></g></g><g id="_8CBEB61E-36B8-41DB-8E0D-ED60E2F1A0FF" bpmn2nodeid="_2024A900-EDC2-40AB-9DBD-8AA9CF0CA553"><g class="stencils" transform="translate(485, 140)"><g class="me"><g pointer-events="fill" oryx:minimumSize="50 40" id="_8CBEB61E-36B8-41DB-8E0D-ED60E2F1A0FF">   	<defs id="_8CBEB61E-36B8-41DB-8E0D-ED60E2F1A0FF__8CBEB61E-36B8-41DB-8E0D-ED60E2F1A0FF_17"> 		<radialGradient id="_8CBEB61E-36B8-41DB-8E0D-ED60E2F1A0FFbackground" cx="10%" cy="10%" r="100%" fx="10%" fy="10%"> 			<stop offset="0%" stop-color="#ffffff" stop-opacity="1" id="_8CBEB61E-36B8-41DB-8E0D-ED60E2F1A0FF__8CBEB61E-36B8-41DB-8E0D-ED60E2F1A0FF_18"/> 			<stop id="_8CBEB61E-36B8-41DB-8E0D-ED60E2F1A0FFfill_el" offset="100%" stop-color="#fafad2" stop-opacity="1"/> 		</radialGradient> 		<radialGradient id="_8CBEB61E-36B8-41DB-8E0D-ED60E2F1A0FFborderbackground" cx="10%" cy="10%" r="100%" fx="10%" fy="10%"> 			<stop offset="0%" stop-color="#ffffff" stop-opacity="1" id="_8CBEB61E-36B8-41DB-8E0D-ED60E2F1A0FF__8CBEB61E-36B8-41DB-8E0D-ED60E2F1A0FF_19"/> 			<stop id="_8CBEB61E-36B8-41DB-8E0D-ED60E2F1A0FFfill_border" offset="100%" stop-color="#000000" stop-opacity="1" stroke="#000000"/> 		</radialGradient> 	</defs> 	 	<rect id="_8CBEB61E-36B8-41DB-8E0D-ED60E2F1A0FFtext_frame" oryx:anchors="bottom top right left" x="1" y="1" width="94" height="79" rx="10" ry="10" stroke="none" stroke-width="0" fill="none"/> 	<rect id="_8CBEB61E-36B8-41DB-8E0D-ED60E2F1A0FFbg_frame" oryx:resize="vertical horizontal" x="0" y="0" width="100" height="80" rx="10" ry="10" stroke="#000000" stroke-width="1" fill="url(#_8CBEB61E-36B8-41DB-8E0D-ED60E2F1A0FFbackground) #ffffcc"/> 		<text font-size="12" id="_8CBEB61E-36B8-41DB-8E0D-ED60E2F1A0FFtext_name" x="50" y="40" oryx:align="middle center" oryx:fittoelem="text_frame" stroke="black" text-anchor="middle" stroke-width="0pt" letter-spacing="-0.01px" fill="#000000" transform="rotate(0 50 40)" visibility="inherit" oryx:fontSize="12"><tspan x="50" y="40" dy="-1">Mostrar </tspan><tspan x="50" y="40" dy="11" id="ext-gen800">Resultado</tspan></text>     <g id="_8CBEB61E-36B8-41DB-8E0D-ED60E2F1A0FFmanualTask" transform="scale(0.7,0.7) translate(8,8)" display="none">     	<path oryx:anchors="top left" id="_8CBEB61E-36B8-41DB-8E0D-ED60E2F1A0FFframe" style="opacity:1;fill:none;fill-opacity:1;stroke-width:1" d="M0.5,3.751l4.083-3.25c0,0,11.166,0.083,12.083,0.083s-2.417,2.917-1.5,2.917     s11.667,0,12.584,0c1.166,1.708-0.168,3.167-0.834,3.667s0.875,1.917-1,4.417c-0.75,0.25,0.75,1.875-1.333,3.333     c-1.167,0.583,0.583,1.542-1.25,2.833c-1.167,0-20.833,0.083-20.833,0.083l-2-1.333V3.751z" stroke="#000000"/> 		<path id="_8CBEB61E-36B8-41DB-8E0D-ED60E2F1A0FFframe2" oryx:anchors="top left" style="opacity:1;fill:none;stroke-width:2" d="M 13.5 7 L 27 7" stroke="#000000"/> 		<path id="_8CBEB61E-36B8-41DB-8E0D-ED60E2F1A0FFframe3" oryx:anchors="top left" style="opacity:1;fill:none;stroke-width:2" d="M 13.5 11 L 26 11" stroke="#000000"/> 		<path id="_8CBEB61E-36B8-41DB-8E0D-ED60E2F1A0FFframe4" oryx:anchors="top left" style="opacity:1;fill:none;stroke-width:1.5" d="M 14 14.5 L 25 14.5" stroke="#000000"/> 		<path id="_8CBEB61E-36B8-41DB-8E0D-ED60E2F1A0FFframe5" oryx:anchors="top left" style="opacity:1;fill:none;stroke-width:1.5" d="M 8.2 3.1 L 15 3.1" stroke="#000000"/> 	</g> 	 	<g id="_8CBEB61E-36B8-41DB-8E0D-ED60E2F1A0FFbusinessRuleTask" transform="scale(0.7,0.7) translate(8,8)" display="none"> 		<rect id="_8CBEB61E-36B8-41DB-8E0D-ED60E2F1A0FFframe6" oryx:anchors="top left" x="0" y="0" width="22" height="4" style="opacity:1;fill:#B3B1B3;fill-opacity:1;" stroke="#000000"/> 		<rect id="_8CBEB61E-36B8-41DB-8E0D-ED60E2F1A0FFframe7" oryx:anchors="top left" x="0" y="4" style="opacity:1;fill:none;" width="22" height="12" stroke="#000000"/> 		<path id="_8CBEB61E-36B8-41DB-8E0D-ED60E2F1A0FFframe8" oryx:anchors="top left" style="opacity:1;fill:none;" d="M 0 10 L 22 10" stroke="#000000"/> 		<path id="_8CBEB61E-36B8-41DB-8E0D-ED60E2F1A0FFframe9" oryx:anchors="top left" style="opacity:1; fill:none;" d="M 7 4 L 7 16" stroke="#000000"/> 	</g> 	 	<g id="_8CBEB61E-36B8-41DB-8E0D-ED60E2F1A0FFscriptTask" transform="scale(0.7,0.7) translate(8,8)" display="none"> 		<path oryx:anchors="top left" id="_8CBEB61E-36B8-41DB-8E0D-ED60E2F1A0FFframe10" style="opacity:1;fill:none;" stroke="#000000" d="M6.402,0.5h14.5c0,0-5.833,2.833-5.833,5.583s4.417,6,4.417,9.167    s-4.167,5.083-4.167,5.083H0.235c0,0,5-2.667,5-5s-4.583-6.75-4.583-9.25S6.402,0.5,6.402,0.5z"/> 		<path oryx:anchors="top left" id="_8CBEB61E-36B8-41DB-8E0D-ED60E2F1A0FFframe11" style="opacity:1;fill:none;stroke-width:1.5" d="M 3.5 4.5 L 13.5 4.5" stroke="#000000"/> 		<path oryx:anchors="top left" id="_8CBEB61E-36B8-41DB-8E0D-ED60E2F1A0FFframe12" style="opacity:1;fill:none;stroke-width:1.5" d="M 3.8 8.5 L 13.8 8.5" stroke="#000000"/> 		<path oryx:anchors="top left" id="_8CBEB61E-36B8-41DB-8E0D-ED60E2F1A0FFframe13" style="opacity:1;fill:none;stroke-width:1.5" d="M 6.3 12.5 L 16.3 12.5" stroke="#000000"/> 		<path oryx:anchors="top left" id="_8CBEB61E-36B8-41DB-8E0D-ED60E2F1A0FFframe14" style="opacity:1;fill:none;stroke-width:1.5" d="M 6.5 16.5 L 16.5 16.5" stroke="#000000"/> 	</g> 	 	<g id="_8CBEB61E-36B8-41DB-8E0D-ED60E2F1A0FFuserTask" transform="scale(0.7,0.7) translate(8,8)" display="inherit"> 		<path id="_8CBEB61E-36B8-41DB-8E0D-ED60E2F1A0FFframe15" oryx:anchors="top left" style="opacity:1;fill:#F4F6F7" stroke="#000000" d="M0.585,24.167h24.083v-7.833c0,0-2.333-3.917-7.083-5.167h-9.25    c-4.417,1.333-7.833,5.75-7.833,5.75L0.585,24.167z"/> 		<path id="_8CBEB61E-36B8-41DB-8E0D-ED60E2F1A0FFframe16" oryx:anchors="top left" style="opacity:1;fill:none" d="M 6 20 L 6 24" stroke="#000000"/> 		<path id="_8CBEB61E-36B8-41DB-8E0D-ED60E2F1A0FFframe17" oryx:anchors="top left" style="opacity:1;fill:none" d="M 20 20 L 20 24" stroke="#000000"/> 		<circle id="_8CBEB61E-36B8-41DB-8E0D-ED60E2F1A0FFframe18" oryx:anchors="top left" fill="black" cx="13.002" cy="5.916" r="5.417" stroke="#000000"/> 		<path id="_8CBEB61E-36B8-41DB-8E0D-ED60E2F1A0FFframe19" oryx:anchors="top left" style="opacity:1;fill:#F0EFF0;" stroke="#000000" d="M8.043,7.083c0,0,2.814-2.426,5.376-1.807s4.624-0.693,4.624-0.693    c0.25,1.688,0.042,3.75-1.458,5.584c0,0,1.083,0.75,1.083,1.5s0.125,1.875-1,3s-5.5,1.25-6.75,0S8.668,12.834,8.668,12    s0.583-1.25,1.25-1.917C8.835,9.5,7.419,7.708,8.043,7.083z"/> 	</g> 	 	<g id="_8CBEB61E-36B8-41DB-8E0D-ED60E2F1A0FFserviceTask" transform="scale(0.7,0.7) translate(8,8)" display="none"> 		<polygon oryx:anchors="top left" id="_8CBEB61E-36B8-41DB-8E0D-ED60E2F1A0FFframe20" style="opacity:1;fill:#ffffff" stroke="#000000" points="15.392,5.064 17.954,2.502 20.347,4.895 17.786,7.455     18.729,9.732 22.353,9.732 22.353,13.115 18.731,13.115 17.788,15.392 20.351,17.955 17.958,20.347 15.397,17.786 13.12,18.729     13.12,22.353 9.737,22.353 9.737,18.731 7.46,17.788 4.897,20.35 2.506,17.958 5.066,15.397 4.124,13.12 0.5,13.12 0.5,9.737     4.121,9.737 5.065,7.461 2.503,4.898 4.895,2.506 7.455,5.066 9.732,4.125 9.732,0.5 13.116,0.5 13.116,4.121 "/> 		<circle oryx:anchors="top left" id="_8CBEB61E-36B8-41DB-8E0D-ED60E2F1A0FFframe21" style="opacity:1;fill:none" stroke="#000000" cx="11.427" cy="11.426" r="3.714"/> 		<polygon oryx:anchors="top left" id="_8CBEB61E-36B8-41DB-8E0D-ED60E2F1A0FFframe22" style="opacity:1;fill:#ffffff" stroke="#000000" points="21.392,11.064 23.954,8.502 26.347,10.895 23.786,13.455     24.729,15.732 28.353,15.732 28.353,19.115 24.731,19.115 23.788,21.392 26.351,23.955 23.958,26.347 21.397,23.786 19.12,24.729     19.12,28.353 15.737,28.353 15.737,24.731 13.46,23.788 10.897,26.35 8.506,23.958 11.066,21.397 10.124,19.12 6.5,19.12     6.5,15.737 10.121,15.737 11.065,13.461 8.503,10.898 10.895,8.506 13.455,11.066 15.732,10.125 15.732,6.5 19.116,6.5     19.116,10.121 "/> 		<circle oryx:anchors="top left" id="_8CBEB61E-36B8-41DB-8E0D-ED60E2F1A0FFframe23" style="opacity:1;fill:none;" stroke="#000000" cx="17.427" cy="17.426" r="3.714"/> 	</g> 	 	<g id="_8CBEB61E-36B8-41DB-8E0D-ED60E2F1A0FFsendTask" display="none"> 		<path id="_8CBEB61E-36B8-41DB-8E0D-ED60E2F1A0FFstframe24" oryx:anchors="left top" stroke="#FFFFFF" fill="black" stroke-width="1" d="M8,11 L8,21 L24,21 L24,11 L16,17z"/> 		<path id="_8CBEB61E-36B8-41DB-8E0D-ED60E2F1A0FFstframe25" oryx:anchors="left top" stroke="#FFFFFF" fill="black" stroke-width="1" d="M7,10 L16,17 L25 10z"/> 	</g> 	 	<g id="_8CBEB61E-36B8-41DB-8E0D-ED60E2F1A0FFreceiveTask" display="none"> 		<path id="_8CBEB61E-36B8-41DB-8E0D-ED60E2F1A0FFframe26" oryx:anchors="left top" stroke="#000000" fill="none" stroke-width="1" d="M8,11 L8,21 L24,21 L24,11z M8,11 L16,17 L24,11"/> 	</g> 	 	<g id="_8CBEB61E-36B8-41DB-8E0D-ED60E2F1A0FFnone" display="inherit"/>  	<g id="_8CBEB61E-36B8-41DB-8E0D-ED60E2F1A0FFsequential" display="none">         <path oryx:anchors="bottom" fill="none" stroke="#000000" stroke-width="2" d="M46,76h10M46,72h10 M46,68h10" id="_8CBEB61E-36B8-41DB-8E0D-ED60E2F1A0FF__8CBEB61E-36B8-41DB-8E0D-ED60E2F1A0FF_20"/>     </g>   </g></g><g class="children" style="overflow:hidden"/><g class="edge"/></g><g class="controls"><g class="dockers"/><g class="magnets" transform="translate(485, 140)"><g pointer-events="all" display="none" transform="translate(-7, 12)"><circle cx="8" cy="8" r="4" stroke="none" fill="red" fill-opacity="0.3"/></g><g pointer-events="all" display="none" transform="translate(-7, 32)"><circle cx="8" cy="8" r="4" stroke="none" fill="red" fill-opacity="0.3"/></g><g pointer-events="all" display="none" transform="translate(-7, 52)"><circle cx="8" cy="8" r="4" stroke="none" fill="red" fill-opacity="0.3"/></g><g pointer-events="all" display="none" transform="translate(17, 71)"><circle cx="8" cy="8" r="4" stroke="none" fill="red" fill-opacity="0.3"/></g><g pointer-events="all" display="none" transform="translate(42, 71)"><circle cx="8" cy="8" r="4" stroke="none" fill="red" fill-opacity="0.3"/></g><g pointer-events="all" display="none" transform="translate(67, 71)"><circle cx="8" cy="8" r="4" stroke="none" fill="red" fill-opacity="0.3"/></g><g pointer-events="all" display="none" transform="translate(91, 12)"><circle cx="8" cy="8" r="4" stroke="none" fill="red" fill-opacity="0.3"/></g><g pointer-events="all" display="none" transform="translate(91, 32)"><circle cx="8" cy="8" r="4" stroke="none" fill="red" fill-opacity="0.3"/></g><g pointer-events="all" display="none" transform="translate(91, 52)"><circle cx="8" cy="8" r="4" stroke="none" fill="red" fill-opacity="0.3"/></g><g pointer-events="all" display="none" transform="translate(17, -7)"><circle cx="8" cy="8" r="4" stroke="none" fill="red" fill-opacity="0.3"/></g><g pointer-events="all" display="none" transform="translate(42, -7)"><circle cx="8" cy="8" r="4" stroke="none" fill="red" fill-opacity="0.3"/></g><g pointer-events="all" display="none" transform="translate(67, -7)"><circle cx="8" cy="8" r="4" stroke="none" fill="red" fill-opacity="0.3"/></g><g pointer-events="all" display="none" transform="translate(42, 32)"><circle cx="8" cy="8" r="4" stroke="none" fill="red" fill-opacity="0.3"/></g></g></g></g><g id="_C8B9FFFB-6970-4A15-AD70-96B29B7B0E79" bpmn2nodeid="_D6F0217F-D3FB-46C5-9815-4437815C4300"><g class="stencils" transform="translate(645, 166)"><g class="me"><g pointer-events="fill" id="_C8B9FFFB-6970-4A15-AD70-96B29B7B0E79">      <defs id="_C8B9FFFB-6970-4A15-AD70-96B29B7B0E79__C8B9FFFB-6970-4A15-AD70-96B29B7B0E79_5"> 		<radialGradient id="_C8B9FFFB-6970-4A15-AD70-96B29B7B0E79background" cx="10%" cy="10%" r="100%" fx="10%" fy="10%"> 			<stop offset="0%" stop-color="#ffffff" stop-opacity="1" id="_C8B9FFFB-6970-4A15-AD70-96B29B7B0E79__C8B9FFFB-6970-4A15-AD70-96B29B7B0E79_6"/> 			<stop id="_C8B9FFFB-6970-4A15-AD70-96B29B7B0E79fill_el" offset="100%" stop-color="#ff6347" stop-opacity="1"/> 		</radialGradient> 	</defs> 	     <circle id="_C8B9FFFB-6970-4A15-AD70-96B29B7B0E79bg_frame" cx="14" cy="14" r="14" stroke="#000000" fill="url(#_C8B9FFFB-6970-4A15-AD70-96B29B7B0E79background) white" stroke-width="3"/> 	<text font-size="11" id="_C8B9FFFB-6970-4A15-AD70-96B29B7B0E79text_name" x="14" y="30" oryx:align="top center" stroke="black" stroke-width="0pt" letter-spacing="-0.01px" fill="#000000" text-anchor="middle" transform="rotate(0 14 30)" visibility="inherit" oryx:fontSize="11"/>   </g></g><g class="children" style="overflow:hidden"/><g class="edge"/></g><g class="controls"><g class="dockers"/><g class="magnets" transform="translate(645, 166)"><g pointer-events="all" display="none" transform="translate(6, 6)"><circle cx="8" cy="8" r="4" stroke="none" fill="red" fill-opacity="0.3"/></g></g></g></g></g><g class="edge"><g id="_963E2A1C-54A1-42DB-BCC2-3524DD905DA3" bpmn2nodeid="_3B50FB0C-3AC5-4F97-993F-0C16BFCD7FD0"><g class="stencils"><g class="me"><g pointer-events="painted" bpmn2nodeid="_E313A9CF-3D9D-45EE-9184-F6A0AFD28E14"><path id="_963E2A1C-54A1-42DB-BCC2-3524DD905DA3_1" d="M150.6083435402103 179.29052983908136L194.1572814597897 177.31103266091864 " stroke="#000000" fill="none" stroke-width="2" stroke-linecap="round" stroke-linejoin="round" marker-start="url(#_963E2A1C-54A1-42DB-BCC2-3524DD905DA3start)" marker-end="url(#_963E2A1C-54A1-42DB-BCC2-3524DD905DA3end)"/></g><text id="_963E2A1C-54A1-42DB-BCC2-3524DD905DA3text_name" font-size="12" x="164.6083435402103" y="165.29052983908136" oryx:edgePosition="startTop" stroke-width="0pt" letter-spacing="-0.01px" fill="#000000" text-anchor="start" transform="rotate(357.3974377975002 150.6083435402103 179.29052983908136)" visibility="inherit" oryx:fontSize="12"/></g><g class="children" style="overflow:hidden"/><g class="edge"/></g><g class="controls"><g class="dockers"/><g class="magnets"/></g></g><g id="_5F914121-4709-452E-AFE4-2407154B4B35" bpmn2nodeid="_0E3C25F4-F083-4E4B-A718-FD8059AA6708"><g class="stencils"><g class="me"><g pointer-events="painted" bpmn2nodeid="_0BCA860C-314A-4D6F-863B-17D456CC739E"><path id="_5F914121-4709-452E-AFE4-2407154B4B35_1" d="M295.5703125 175L329.4296875 175 " stroke="#000000" fill="none" stroke-width="2" stroke-linecap="round" stroke-linejoin="round" marker-start="url(#_5F914121-4709-452E-AFE4-2407154B4B35start)" marker-end="url(#_5F914121-4709-452E-AFE4-2407154B4B35end)"/></g><text id="_5F914121-4709-452E-AFE4-2407154B4B35text_name" font-size="12" x="309.5703125" y="161" oryx:edgePosition="startTop" stroke-width="0pt" letter-spacing="-0.01px" fill="#000000" text-anchor="start" transform="rotate(360 295.5703125 175)" visibility="inherit" oryx:fontSize="12"/></g><g class="children" style="overflow:hidden"/><g class="edge"/></g><g class="controls"><g class="dockers"/><g class="magnets"/></g></g><g id="_22CEAECE-E802-40BB-8713-10531B0451DE" bpmn2nodeid="_26B90D00-96E9-4879-AE26-2F559EF53F2B"><g class="stencils"><g class="me"><g pointer-events="painted" bpmn2nodeid="_2CB44705-3544-4DB0-A6FF-0A7284247816"><path id="_22CEAECE-E802-40BB-8713-10531B0451DE_1" d="M430.6479176143397 176.63380379401096L484.3520823856603 178.36619620598904 " stroke="#000000" fill="none" stroke-width="2" stroke-linecap="round" stroke-linejoin="round" marker-start="url(#_22CEAECE-E802-40BB-8713-10531B0451DEstart)" marker-end="url(#_22CEAECE-E802-40BB-8713-10531B0451DEend)"/></g><text id="_22CEAECE-E802-40BB-8713-10531B0451DEtext_name" font-size="12" x="444.6479176143397" y="162.63380379401096" oryx:edgePosition="startTop" stroke-width="0pt" letter-spacing="-0.01px" fill="#000000" text-anchor="start" transform="rotate(1.8476102659946037 430.6479176143397 176.63380379401096)" visibility="inherit" oryx:fontSize="12"/></g><g class="children" style="overflow:hidden"/><g class="edge"/></g><g class="controls"><g class="dockers"/><g class="magnets"/></g></g><g id="_06F6F072-D34D-4816-AEA9-A8BDAF2D742E" bpmn2nodeid="_31567B0A-1F54-4D1A-B882-6EBE0BBAE0A4"><g class="stencils"><g class="me"><g pointer-events="painted" bpmn2nodeid="_47C43B8D-AFD1-4CB1-B1A9-6905932BD95B"><path id="_06F6F072-D34D-4816-AEA9-A8BDAF2D742E_1" d="M585.40625 180L644.4375 180 " stroke="#000000" fill="none" stroke-width="2" stroke-linecap="round" stroke-linejoin="round" marker-start="url(#_06F6F072-D34D-4816-AEA9-A8BDAF2D742Estart)" marker-end="url(#_06F6F072-D34D-4816-AEA9-A8BDAF2D742Eend)"/></g><text id="_06F6F072-D34D-4816-AEA9-A8BDAF2D742Etext_name" font-size="12" x="599.40625" y="166" oryx:edgePosition="startTop" stroke-width="0pt" letter-spacing="-0.01px" fill="#000000" text-anchor="start" transform="rotate(360 585.40625 180)" visibility="inherit" oryx:fontSize="12"/></g><g class="children" style="overflow:hidden"/><g class="edge"/></g><g class="controls"><g class="dockers"/><g class="magnets"/></g></g></g><text id="_0ED9FA1B-1EF8-4C02-B005-89E3A3080DB6" style="stroke-width:1;fill:rgb(177,194,214);font-family:arial;font-weight:bold" font-size="12" onclick="ORYX.Plugins.CanvasTitle.openTextualAnalysis()" onmouseover="ORYX.Plugins.CanvasTitle.addToolTip('_0ED9FA1B-1EF8-4C02-B005-89E3A3080DB6')" transform="translate(10, 20)">Adicion v.1.0 (src.main.resources.Adicion)</text></g></g></svg>